M48
;DRILL file {VICad}
;FORMAT={3:3/ absolute / metric / suppress leading zeros}
FMAT,2
METRIC,TZ
T1C0.400
T2C0.800
T3C0.800
T4C1.001
%
G90
G05
M71
T1
X111791Y-125186
X125454Y-113126
X131401Y-121248
X132874Y-121340
X143026Y-118783
X144601Y-99408
X145983Y-97783
X156498Y-109325
X160576Y-98218
X169406Y-110441
X174585Y-110480
T2
X63500Y-111000
X63500Y-113000
X77000Y-94380
X77000Y-102000
X77000Y-108380
X77000Y-116000
X77000Y-121380
X77000Y-129000
X79540Y-94380
X79540Y-102000
X79540Y-108380
X79540Y-116000
X79540Y-121380
X79540Y-129000
X82080Y-94380
X82080Y-102000
X82080Y-108380
X82080Y-116000
X82080Y-121380
X82080Y-129000
X84620Y-94380
X84620Y-102000
X84620Y-108380
X84620Y-116000
X84620Y-121380
X84620Y-129000
X87160Y-94380
X87160Y-102000
X87160Y-108380
X87160Y-116000
X89700Y-94380
X89700Y-102000
X89700Y-108380
X89700Y-116000
X92240Y-94380
X92240Y-102000
X92240Y-108380
X92240Y-116000
X93000Y-123000
X93000Y-128000
X93000Y-130000
X94780Y-108380
X94780Y-116000
X107000Y-94380
X107000Y-102000
X107000Y-108380
X107000Y-116000
X107000Y-120380
X107000Y-128000
X109540Y-94380
X109540Y-102000
X109540Y-108380
X109540Y-116000
X109540Y-120380
X109540Y-128000
X112080Y-94380
X112080Y-102000
X112080Y-108380
X112080Y-116000
X112080Y-120380
X112080Y-128000
X114620Y-94380
X114620Y-102000
X114620Y-108380
X114620Y-116000
X114620Y-120380
X114620Y-128000
X117160Y-94380
X117160Y-102000
X117160Y-108380
X117160Y-116000
X117160Y-120380
X117160Y-128000
X119700Y-94380
X119700Y-102000
X119700Y-108380
X119700Y-116000
X119700Y-120380
X119700Y-128000
X122240Y-94380
X122240Y-102000
X122240Y-108380
X122240Y-116000
X122240Y-120380
X122240Y-128000
X134000Y-94380
X134000Y-102000
X134000Y-108380
X134000Y-116000
X134000Y-120380
X134000Y-128000
X136540Y-94380
X136540Y-102000
X136540Y-108380
X136540Y-116000
X136540Y-120380
X136540Y-128000
X139080Y-94380
X139080Y-102000
X139080Y-108380
X139080Y-116000
X139080Y-120380
X139080Y-128000
X141620Y-94380
X141620Y-102000
X141620Y-108380
X141620Y-116000
X141620Y-120380
X141620Y-128000
X144160Y-94380
X144160Y-102000
X144160Y-108380
X144160Y-116000
X144160Y-120380
X144160Y-128000
X146700Y-94380
X146700Y-102000
X146700Y-108380
X146700Y-116000
X146700Y-120380
X146700Y-128000
X149240Y-94380
X149240Y-102000
X149240Y-108380
X149240Y-116000
X149240Y-120380
X149240Y-128000
X161000Y-94380
X161000Y-102000
X161000Y-108380
X161000Y-116000
X161000Y-120380
X161000Y-128000
X163540Y-94380
X163540Y-102000
X163540Y-108380
X163540Y-116000
X163540Y-120380
X163540Y-128000
X166080Y-94380
X166080Y-102000
X166080Y-108380
X166080Y-116000
X166080Y-120380
X166080Y-128000
X168620Y-94380
X168620Y-102000
X168620Y-108380
X168620Y-116000
X168620Y-120380
X168620Y-128000
X171160Y-94380
X171160Y-102000
X171160Y-108380
X171160Y-116000
X171160Y-120380
X171160Y-128000
X173700Y-94380
X173700Y-102000
X173700Y-108380
X173700Y-116000
X173700Y-120380
X173700Y-128000
X176240Y-94380
X176240Y-102000
X176240Y-108380
X176240Y-116000
X176240Y-120380
X176240Y-128000
X187000Y-94380
X187000Y-102000
X187000Y-108380
X187000Y-116000
X189540Y-94380
X189540Y-102000
X189540Y-108380
X189540Y-116000
X192080Y-94380
X192080Y-102000
X192080Y-108380
X192080Y-116000
X192920Y-137380
X192920Y-152620
X194620Y-94380
X194620Y-102000
X194620Y-108380
X194620Y-116000
X195460Y-137380
X195460Y-152620
X197160Y-94380
X197160Y-102000
X197160Y-108380
X197160Y-116000
X198000Y-137380
X198000Y-152620
X199700Y-94380
X199700Y-102000
X199700Y-108380
X199700Y-116000
X200540Y-137380
X200540Y-152620
X202240Y-94380
X202240Y-102000
X202240Y-108380
X202240Y-116000
X203080Y-137380
X203080Y-152620
T3
X93000Y-120500
T4
X65000Y-120920
X65000Y-131080
X70000Y-106920
X70000Y-117080
X70000Y-120920
X70000Y-131080
X83000Y-139920
X83000Y-150080
X89000Y-139920
X89000Y-150080
X95000Y-139920
X95000Y-150080
X101000Y-139920
X101000Y-150080
X107000Y-139920
X107000Y-150080
X113000Y-139920
X113000Y-150080
X119000Y-139920
X119000Y-150080
X125000Y-139920
X125000Y-150080
X179520Y-137400
X179520Y-141200
X179720Y-149000
X179720Y-152800
X189680Y-137400
X189680Y-141200
X189880Y-149000
X189880Y-152800
X193000Y-121120
X193000Y-131280
X196200Y-121120
X196200Y-131280
X199400Y-121120
X199400Y-131280
X202800Y-121120
X202800Y-131280
T4
X66201Y-143001G85X66201Y-144999
G05
X68201Y-148699G85X70200Y-148699
G05
X72200Y-143001G85X72200Y-144999
G05
T0
M30